<svg id="圖層_1" data-name="圖層 1" xmlns="http://www.w3.org/2000/svg" viewBox="0 0 458.48 136.18"><defs><style>.cls-1{fill:#fff;}</style></defs><title>PIC1070129</title><path class="cls-1" d="M53.79,37.51c1.37,1-.91,2.46,1,3.37,1.27-.87,2.59-1.22,3.55-2.6,1.51-1.17,4.68-1.37,4.25-3.73-3.12-7-12.56-1.55-18.14-5.7C46.28,32.45,50,36.17,53.79,37.51Z" transform="translate(-19.19 -28.85)"/><path class="cls-1" d="M98.22,91.84c-8.21-7.93-18.6-.61-27,1-2.28-10.19,0-20.42.08-30.77.26-3.74,3.91-8.75-1.3-11.33-.81-.2-2-1.72-2.67-.35.87,1,2.24,1.71,2.31,2.78C68.1,61.49,71,73.49,60.05,75.82c-1.63-.43-.11-1.58-.72-2.61-1.7,2.25-.64,6.15-4.32,6.67-1.82-3.61,1.11-7.25,1.66-10.74,5.21-9.64,8.5-23.89,20.76-26.84,2-1.7,5.59.18,7.27-2.6-.65-1.55-3-1.65-4.67-2.07-7.26,6-16.76,7-24.08,12.48-3.91,1.3-7.73,3.42-11.33,5-5.39,2.74-10.19,6.5-15.63,8.45C25,64.1,22.38,60,19.21,60c-.23,4.79,2.87,7.77,6,10.75,7.65-.51,11-9.76,18-11.82C49.35,54.78,55.67,50.13,63,48.57c0,4-3.51,7.13-4.57,10.9-5.63,11.27-6.6,24.32-7.89,37.14.55.49,1.15,1.51,2.19.91,4.51-4,3-10.8,6.38-15.52,2.23-2.54,5-5.12,7.85-5.57L68,88.55c-.37,2.4.63,5.53-1.39,7C62.31,94,60.9,89,59.7,86.72c.47,2.88.71,6.59,2,9.67-3,3.14-7.07,5.25-11,7.11-5.62,3-10,8.6-15.73,10.59.43-5.61,6.81-9.49,6.72-14.79-2.86,1-3.17,4.22-5.16,6.18-1.83,4.37-5.57,8.06-6.34,12.36.19,2.92,3.24,1.12,4.85,1.27C43.63,112.19,51.9,105,62,100.9c1.93-2.8,4.54.21,6.7,1.13,2.57-1.5.75-4.81,3.27-6.59,5.73-1.69,10.65-7.33,17.68-5.42,2.52,1.7,6.37,4.1,5.29,7.62-4.08,6.62-6.18,14.73-12.75,19.93-4,2.93-8.28,2.68-13.34,2.49-1.4-1-.41-2.1-.49-3.42,0-4,3.34-9.48-.86-12.68-3.77-1.06-6.62.18-9.67,2.25s-8.72,4-7.88,8.75c1.33,4.41,6.46,5.39,10,7.29-.84,3.5-4.13,1.58-5.95,2.25l.07,1a4.26,4.26,0,0,0,3.42,3.21,6.92,6.92,0,0,0,7-2.06c2.49-6.52,8.47-.29,12.63-1.38,8.06,1.07,12.26-7.43,15.57-13.22C95.72,105.82,100.31,99.13,98.22,91.84ZM54.77,84.13l-.29,0,0-.53h.26Zm7.61,34.77c-3.05-1.67-7.7-.28-9.84-4.14,1.25-5.1,7-6.55,11.11-8.69.31.78,1.57-.1,1.63,1C65.31,111.27,65.38,116.3,62.38,118.9Z" transform="translate(-19.19 -28.85)"/><path class="cls-1" d="M148.55,76.63c-2.21-2.37,1.1-4.76,2-7-.7-1.46-2.18-2.91-3.83-2.72-1.09,4.92-2.19,10.41-5.12,15l.92,1.08c1.44.19,2.18-1.64,3.28-2.37a1.51,1.51,0,0,1,2.19.56,292.81,292.81,0,0,0-7.49,37.46c.91,2,1.63,4.19,3.46,5.46a1.71,1.71,0,0,0,.74-1.64c-1.1-6.38-.36-13.7.55-20.27,2.37-3.84.91-8.41,3.12-12.42.55-4.22,3.1-7.49,4.58-11.33C151.83,76.44,150.2,77.54,148.55,76.63Z" transform="translate(-19.19 -28.85)"/><path class="cls-1" d="M134.31,99.84c-3.31,6.2-6.21,12.41-11.69,17.55l-1.12.17c-.72-.55-.72-1.46-.72-2.39,4.39-6.74,9.32-13.33,11.69-21.18-.36-3.47-4.37-1.11-5.1-4l-.19-8.77-.73-1.47c-1.09-1.27-2.91-.18-4.4-.18-.19.37.19.54.57.71,1.64,3.48,3.29,8.42.71,11.89C115.48,96,106.71,102.76,103.06,111c-.19,1.81-1.1,4.56,1.09,5.49,2.95,1.27,5.85-.37,8-2.2,3.1-.91,5.68-4.2,7.65-7,.94-2.92,3.31-5.29,4.23-8.41,1.1-1.81,1.63-4.38,3.47-5.47,3.84,5.1-3.11,8.77-3.28,13.72-1.3,4.55-6,7.84-4.75,13.51a1,1,0,0,0,1.46,1.08c2.57-2.72,6.4-5.65,8.76-8.77,2.91-5.82,7.49-11.32,6.58-18.45C136,96.52,134.67,98,134.31,99.84Zm-17.54,9.32a22.29,22.29,0,0,1-9,6c-.71-.34-1.82.2-2.39-.54-.17-5.66,3.84-10.42,8.06-14.06,3.08-2,5.66-5.13,9.31-5.49C122.62,100.2,119.31,104.58,116.77,109.16Z" transform="translate(-19.19 -28.85)"/><path class="cls-1" d="M161.34,86.3c.74-.9,2.93-.55,2.57-2.36-1.27-2.2-3.84-1.28-5.67-.37,1.11.91.73,2.18,1.11,3.1A3.92,3.92,0,0,1,161.34,86.3Z" transform="translate(-19.19 -28.85)"/><path class="cls-1" d="M151.83,93.24c3.87,1.29,7.69.56,11.53-.17.91-.73,3.11-1.46,2.56-3.28a4.4,4.4,0,0,0-2.75-.75Z" transform="translate(-19.19 -28.85)"/><path class="cls-1" d="M168.3,109.16l-5.66,3.47c-1.3.91-2-.74-2.57-1.65-.19-2.38,2.2-3.82,4.2-4.75-.19-1.65-2-1.65-2.93-2.94-1.46-2.91,2.93-2,4.2-3.45.38-.93-.72-.57-.91-1.3-2-.34-4.22,0-5.48-2-1.27-.72-2.37,0-3.45.58.16,1.1,2,1.1,2,2.54-2.37,2.74-6,2-9.14,2.93a.39.39,0,0,0,.38.36c2,1.65,4.18-.36,6.2.92.19.36-.18.55-.18.92a.77.77,0,0,0,.75-.37c.53-.9,1.44.18,1.61.73.74.54-.17.91-.17,1.29-1.1.9-2,.16-3.1-.19-.55.56-1.08,1.09-.74,2s1.27.74,1.83,1.28c.91,3.12-3.12,2.91-4,5.32,1.3,1.08,3.46.89,4.93.89,2.2,0,.55,2.21,1.27,3.31.74.17.93-.37,1.47-.74.37-5.66,7.69-2.75,11-5.1C171,111.71,169.21,110.24,168.3,109.16ZM156,113.54h-.55c-.36-1.12.74-1.29,1.48-1.48C157.5,112.79,157,113.9,156,113.54Z" transform="translate(-19.19 -28.85)"/><path class="cls-1" d="M186.25,85.5c2.55-.5,4.64.76,6.89,1.49a3.4,3.4,0,0,0,1.71-2.67c-.5-2.46-2.84-4.09-5-4.91-1.53-.85-2.91-2.1-4.51-2.69.6,1.47,1.41,2.8,2,4.29C188.68,82.74,186.42,84,186.25,85.5Z" transform="translate(-19.19 -28.85)"/><path class="cls-1" d="M202.58,97.48c-.34-.7-.89-1.46-1.73-1.46-2-1.46-4.63-.22-6.5.66-.94-.66-1.07-1.89-1.35-2.91a14.47,14.47,0,0,1,3.88-3.34c.92-.41,2.21-.92,2.36-2.15a1.89,1.89,0,0,0-1.34-.76c-1.57-1-3.37-.07-4.76.76-3.72,1.45-7,4.4-11.31,4a3.72,3.72,0,0,1-1-1.45,4.31,4.31,0,0,0,.26,3.49c.7,1.39,2.29,1.17,3.71,1.17.91.24,1.55-.64,2.38-.13-.27,1.13-1,2.07-1.3,3.2-1.64,2.69-2.6,6.09-5.74,7.7-1.82,1.07-.43,2.92-.67,4.64l.41.43c1.21.52,2.3-.36,3.06-1.1.78-2.24,3.18-3.69,4.67-5.42,2,.91,1.34,3.44,3,4.77a9.43,9.43,0,0,0,.17,2.39c-.58,2.56,0,4.62-.54,7.14-.65.69-1.08,1.31-.11,2,.77.5,1.41-.26,2.09-.38,1.89-1.83,1.65-4.48,2-6.88a3.84,3.84,0,0,1,.45-3c2.13-.67,3.94-2.72,5.43-4.36C201.26,103.64,203.11,100.88,202.58,97.48Zm-12.24,2.24a7.36,7.36,0,0,1-2.65,1.58v-.49c.85-1.12,1.33-2.51,2.52-3.33A3,3,0,0,1,190.34,99.72Zm4,5.61-.27-.29c.27-1.76-.77-4.23.93-5.32,1.13-.42,2.23-1.42,3.44-1.18l.16.5C198,101.49,196.69,104.06,194.35,105.33Z" transform="translate(-19.19 -28.85)"/><path class="cls-1" d="M235.5,96.1c-.13,1.15.85,1.81,1.35,2.65,1.37.57,2-1,3.07-1,3.07,2.41,4.87-1.91,7.87-1.42.27-.34,1.18-.81.84-1.64-3.19-1.75-6.58.66-9.74,1.27a1.6,1.6,0,0,1-1-1.65,18.51,18.51,0,0,0,4.06-8.46c-.6-2-3-1.48-3.84-.44.79.54.6,1.58.6,2.43C236.8,90.26,237.42,93.7,235.5,96.1Z" transform="translate(-19.19 -28.85)"/><path class="cls-1" d="M233.25,100v-.81c-.8-2.78-2.07,1-3.82-.23-1.27-.27-2.4-.82-2.69-2.23.87-1.92-.83-3.5,0-5.42.84-1.36,2.86-.66,4-1.42.67-.71,1.67-1.31,1.25-2.45-.95-1.16-2.67-1.16-4-.82-2.8,1.46-6.79.76-9.52-.18-1.05-.21-2.69-1.12-3.25,0a9.68,9.68,0,0,0,2.43,3.84c1.81,1.47,3.89.49,6.07,1.2,3.77,3.78-1.48,8.9,1.42,13,0,.54-1,.71-.6,1.41a1.57,1.57,0,0,0,1.6,1c1.52-1.3.41-3.66,1-5.29C228.66,100.15,231.11,100.2,233.25,100Z" transform="translate(-19.19 -28.85)"/><path class="cls-1" d="M259.33,117c-2.15-.39-3.95-1.71-6.08-2-1.9-1.76-4.21-2.35-6.22-3.87-1.21-2.31-4.88-2.36-4.69-5.47.42-1.44,1.34-3.19.42-4.65a6.43,6.43,0,0,1-4.26,3.21c-.28,1.16,1,1,1.42,1.86.81.78.28,1.93-.22,2.64-2.52,2.51-5.9,3.07-8.92,4.42v.44a40,40,0,0,0,6.29-.44c1.53-1.2,3.55-1.64,4.65-3.44a1.83,1.83,0,0,1,1.85.82c1.15,4.36,5.47,6.6,9.29,7.92,1.48-.34,3,.17,4.65-.22C258,117.57,259.55,118.06,259.33,117Z" transform="translate(-19.19 -28.85)"/><path class="cls-1" d="M222.69,111.52c-.74.16-2.23.59-2.77-.43-2.53-2.14-1.31-5.52-1-8.26l-1-1c-1.42.25-3.29-1.43-4.08.22,2.76,3.78-1,7.65,0,11.7,0,1.89,2.11,1.3,3,2.24,4.37.43,7-3.61,10.11-5.85v-.61C225.37,109.16,224.06,110.69,222.69,111.52Z" transform="translate(-19.19 -28.85)"/><path class="cls-1" d="M289.67,74.55c.49-.46.61-.45.78-.92,2.46-3.51-2-4.7-3.39-6.91l-2-.22c-1.39-.64-3.54-2.42-5-1.2C281.69,69.38,285.65,72.88,289.67,74.55Z" transform="translate(-19.19 -28.85)"/><path class="cls-1" d="M277.63,93.17c6.12-1.85,11-7.16,17.09-9.18l0-.78c-1.22-1.42-3.44.23-5-.12l0,.47c-2.26,1.94-5.23,3-7.47,5.07-1.42.43-3.19,2.71-4.24.83-2.1,2.75-5.57,3.12-8.26,4.6-2,.72-4.29,2.36-6.26,1.38-.73-2.66,1.38-4.78,2-6.64l-4.24,6.74a2,2,0,0,0,.57,2.66c3.51,2.4,7.06-.59,10.2-2.07.62-.15,2-.42,1.85.67-3.26,5.36-4,11.7-5.14,17.88.39,2.18-1.87,5.38.91,6.38.78-.29.82-1,1-1.69-.15-5.73,0-12.1,2.64-17.16C274.67,99.15,275,95.59,277.63,93.17Z" transform="translate(-19.19 -28.85)"/><polygon class="cls-1" points="248.15 57.54 247.48 58.45 247.98 58.15 248.15 57.54"/><path class="cls-1" d="M302.08,95.52c1-2.3,3.92-.67,5.52-1.86a2.25,2.25,0,0,0-.62-1.42c-1.21-.82-2.19.73-3.43.54-1.08-.66-.43-1.74-.56-2.66-.12-1.08-1.38-1-2.16-1-2.51.83.39,3.71-1.67,4.91a34.63,34.63,0,0,0-19.09,13.3l-.64-.47c.19-.78-.12-1.56.39-2.17.19-1.56-1.52-2-2.6-1.93.53,2.79.17,5.76-.08,8.84a3.45,3.45,0,0,0-.69,2.17,3,3,0,0,0,1.68,1.13c.82-.77.53-2,.89-3.08,3.16-8.47,11.74-14,20.23-15.62,1.29,4.53,1.16,8.88,1,14-1.75,1.2.87,2.66-.41,4.18-1.63,2.29-5.06,2.36-7.72,2.59,2.73,2.1,6.69,0,9.11,2.9a11.08,11.08,0,0,0,1.9-6.16C300.48,108.53,302.39,101.59,302.08,95.52Z" transform="translate(-19.19 -28.85)"/><path class="cls-1" d="M291.23,110.14a10.1,10.1,0,0,1,4.49,1.52c1.11-.27,2.5.07,3.13-.85-1.18-3.13-4.52-6.18-8.26-6.13-.19,1.24,1.36,1.77,1.8,2.85A2.52,2.52,0,0,1,291.23,110.14Z" transform="translate(-19.19 -28.85)"/><path class="cls-1" d="M379.6,124.35a5.71,5.71,0,0,0-1.86-2.87c-.39.29-.14,1.07-.84.85-.34-1-1.57-.63-2.09-1.68.05-.3-.45-.61,0-.8l-.17-.21-.43.4c-.91-.45-2.36-1.42-2.26-2.65-.38-.28-.6-1-1.23-.85-.13.31.24.4.41.61-.12,1.93-1.77-.49-2.49-.21-1.51-2-4.2-2.69-5.53-4.72a3,3,0,0,0-1,.17,2.63,2.63,0,0,1-1.86-1.41c-.89.36-.62-.53-1.21-.84-1.24.57-2-1.17-3.11-1.46-1.91.07-3.08-1.84-4.93-1.84-.89-.73-2.54-1-2.68-2.26,2.63-3.35,5.27-6.67,5.34-11.11-1.43-2.35-.24-6-3.52-7.41-1.51-1.63-3.91-1-5.36-2.67-.13-3,2.36-6.53-1-8.66-1-1-.91-3-2.7-2.91-.56.11-.74.73-.79,1.24.13,1,1.22.66,1.85,1.06.35,1.7-.56,3.42-.83,5.17-.07,3.26-3.11,5.6-2.1,9,1.87,2.24,3.83-.51,5.58-1,2.4.79,5,1.3,6.61,3.7.22,5-2.29,9-6,12.12a10.58,10.58,0,0,1-2.64-1c-2.14-.34-3.89-1.7-6-2.08,2.11,1.35,5,1.45,7.24,3.07,0,.24.06.58-.22.62-.79-.83-2.13-.38-3.09-.78-.79-.46-2-.95-2.69-.46-.17-.22-.59-.44-.41-.77-.44-.5-.95-1-1.63-.83l1,.6c-.1,1.57,2,1.41,2.87,2.24l.22-.15-.22-.23.22-.24c1.29.29,2.85.58,3.29,2.09-.65,1.58-1.06,3.2-2.67,4.32-.72.51-1.92,1.81-2.69.39l-5.11,3.93c-3,1.35-5.39,3.82-8.88,3.71-1.56.28-2.52-.78-3.53-1.85-2.13-4.27-2.47-9.33-3.71-14,0-1.91-.89-4,0-5.78,2.8,1.13,6.07,1,8.64,2.45,3.59.19,6.24,3.06,9.95,2.26-.11-.28-.45-.72,0-1-2-1.39-4.54-1.5-6.84-2.23-.91-.57-2.47-.45-2.66-1.85-3.55-.51-6.6-1.86-9.88-2.7l-.61.4c-1.41,1.33,0,3,0,4.53,2.36,7,.39,16.51,8,20.61,3.36-.34,6.79-.73,9.48-2.88,1.18.31,1.58-1.17,2.64-1,.43.22-.07.51,0,.83,3.46-2.46,7.11-4.82,10.08-8,1.15-.91,2.38-1.64,3.72-.61.72.66,2.53,1,2.07,2.24,1.08,1.86,3-.24,4.1,1.46.1.27-.22.4-.4.6.23.41.67.41,1,.63,0-.22-.05-.51.23-.63,1.63.87,4,1.31,4.7,3.32,1.52-1.57.68,1.29,2.11,1.22.94-.09,1.38.86,2.22.79.29,1.63,2.32,1.63,3.31,2.7,1.41.91,4.11.51,4.16,2.88,1.46.44,2.41,2.06,3.86,2.46,1.14.28,1.14,2.08,2.49,1.69C379.3,125.46,379.71,125,379.6,124.35Z" transform="translate(-19.19 -28.85)"/><polygon class="cls-1" points="328.64 78.45 328.64 78.21 328.24 78.21 328.64 78.45"/><path class="cls-1" d="M350.11,108.07a.69.69,0,0,0,.86.46C350.69,108.31,350.47,108,350.11,108.07Z" transform="translate(-19.19 -28.85)"/><path class="cls-1" d="M357.93,112.22l-.16.41h.36C358.22,112.44,358,112.34,357.93,112.22Z" transform="translate(-19.19 -28.85)"/><path class="cls-1" d="M418.8,102c-2-1.17-4.44-.57-6.76-.49-2.41.92-5.48.1-7.8,1.29-4.11.19-1.42-4.44-2.38-6.44.23-1.25.09-2.62,1-3.58h2.59c2.71.19,4.63-1.55,7.08-1.94,1.87-1.26,5.23-1.17,5.32-4.18-.38-2.46-3.19-3.12-5.15-3.86-.53.57-1.33-.53-1.61.3,1.1,3.12-2.84,4.08-3.86,6.45-1.69.8-3,2.33-4.85,2.76-1.11-.64-.34-2.32-1-3.25a7,7,0,0,0-3.21-1c-.46.36-1,.44-.82,1.14.58,1.17-1.42,1.27-1,2.59.57-.54,1.27-.23,1.78.19.3.75.83,1.77.14,2.56l.52,6.78c-.57.83.17,2,.17,3.07.84,3.28,3.92.57,6,1.09,1.56-1.37,3.41.85,4.84-.93,1.11.08,1.91-.93,3.06-.35-.58,1.52-1.81,2.71-2.76,4.06-2.47.56-1.81,3.54-4.35,4-1.65,1-1.9,3.09-3.55,3.86l.17.2c.43.09.76-.2,1.12-.37,2.52-1.75,5.48-3,7.73-5,1.87-.32,3.34-1.75,4.87-2.89a15,15,0,0,0,4-2.75C420.65,104.06,419.42,103.06,418.8,102Z" transform="translate(-19.19 -28.85)"/><path class="cls-1" d="M384.41,87a37.63,37.63,0,0,0-3.24,3.88c-1.78,1.59-2.26,3.78-4.16,5.33a3.77,3.77,0,0,0,.48,3.24c.41.63-.16,1.71.48,2.24a6,6,0,0,0,3.87-3.56c.86-.05,1.11.71,1.44,1.32.7,2.2-.24,4.31,0,6.46-.86,1.26-.33,3.12-.8,4.49,0,.66.59,1.27.18,2,.23,1.2,1.75,1.47,2.75,1.91l1.9-1.29c-.26-1.11.63-2.13-.19-3,.72-1.75-.55-3.12-.1-5-.24-.79-1-1.56-.5-2.46-.19-2.17-1.29-3.68-1.8-5.76-.25-.24-.74-.24-.79-.68l1.79-1.78c.49-2,3.24-2.7,3.18-5a41.76,41.76,0,0,0-2.21-5.81C385.27,84.1,385.51,85.94,384.41,87Z" transform="translate(-19.19 -28.85)"/><path class="cls-1" d="M447.58,85.5c-.14,1.29-.22,3,.93,4,2.43.22,4.43-1.13,6.22-2.48,1.76-.94,4.87-1,5-3.44-.82-1.83-3.06-1.19-4.43-2.17l-.09-.9c.75-2.69,4.66-4.4,3.72-7.36-1.71-2.56-5.32-1.29-7.67-.73a2.24,2.24,0,0,1-2.49-1.06l-.35.41c-.14.72-.24,1.9.46,2.36,1.41,1.27,3.22,1.28,4.77,2A7.52,7.52,0,0,1,452,79.51c-1,.32-1.18-1.12-1.92-1.1,0,.17,0,.48-.17.55C451.66,81.84,447.79,83,447.58,85.5Z" transform="translate(-19.19 -28.85)"/><path class="cls-1" d="M477.5,95.44c-1.41-4.15-6.16-3.47-9.64-4-9.75-.49-18.48,3.62-26,8.64-.8,0-1.73,1.13-2.42.07A52.23,52.23,0,0,1,442.23,95c2.06-6.11,4.12-12.31,5.59-18.64l-.22-.13c-2.15,4.36-3.21,9.33-5.49,13.81-1.54,2.78-2.53,5.71-4.92,8.23-1.69,3.74-5.38,7.69-7.95,10.88l0,1.49c4.36-.31,6-5.66,8.71-8.58,4.3-.55,7.81-2.53,11.38-4.43,6.72-2.91,14.08-6.3,22.05-5,2.31,1.39.82,4.05.56,5.88-3.48,6.21-4.44,13.49-9.79,18.85-2.48,1.79-6,.94-8.32-.53-1.22-1.59-3.84-1.81-4.43-4,1-.94,2.2-.42,3.6-.73,1.8-.86,5.36-.34,5-3.24-1.52-1.75-3.91-.59-5.82-.94,0-2.5,4.7-4.41,1.73-7-1.79-.94-4.74-.49-6.43.46-1.35,1.41-3.17,1.86-4.47,3.39s-1.68-.85-2.84-.64c-.6.76-.36,1.86-.26,2.81.84.73,1.73,2.24,3.1,1.72.67-.59,2-.87,1.85-1.84,1.2-1.56,2.37-3.76,4.44-3.94.62,2.28-1.49,4.36-2.71,6.19-.3.09-.63-.38-.73.07.56.79,0,1.7,0,2.56.76.84,2,.55,2.74,1.38,2.92,3.66,6.76,8.45,11.59,9.38.77-.78,2.13-.63,3-1.2,3.79-3.45,5.57-7.81,7.47-12a44.81,44.81,0,0,1,4-8.65C475.35,98.67,478.44,98,477.5,95.44Z" transform="translate(-19.19 -28.85)"/><path class="cls-1" d="M33.67,149.14H36.1a5.63,5.63,0,0,1,2.25.35,2.67,2.67,0,0,1,1.24,1.06,3,3,0,0,1,.06,3.1,3,3,0,0,1-1.18,1.09,4.62,4.62,0,0,1,1.48.76A3.09,3.09,0,0,1,41,157.92,3.32,3.32,0,0,1,40,160.43a4.07,4.07,0,0,1-2.91,1H33.67Zm1.2,1.2v3.95h.71a5.54,5.54,0,0,0,1.89-.24,2,2,0,0,0,1-.76,1.93,1.93,0,0,0,.36-1.14,1.63,1.63,0,0,0-.6-1.33,3,3,0,0,0-1.88-.48Zm0,5.19v4.72H36.4a5.63,5.63,0,0,0,2-.26,2.28,2.28,0,0,0,1-.83,2.07,2.07,0,0,0,.38-1.21,2.11,2.11,0,0,0-.54-1.44,2.73,2.73,0,0,0-1.47-.83,10.84,10.84,0,0,0-2.19-.15Z" transform="translate(-19.19 -28.85)"/><path class="cls-1" d="M43.14,152.34h1.17v4.26a9.09,9.09,0,0,0,.17,2.14,2.39,2.39,0,0,0,1,1.32,3.16,3.16,0,0,0,3.35,0,2.45,2.45,0,0,0,1-1.25,9.19,9.19,0,0,0,.17-2.23v-4.26h1.2v4.47a7.1,7.1,0,0,1-.44,2.84,3.32,3.32,0,0,1-1.32,1.5,4.83,4.83,0,0,1-4.44,0,3.26,3.26,0,0,1-1.33-1.51,7.21,7.21,0,0,1-.44-2.91Z" transform="translate(-19.19 -28.85)"/><path class="cls-1" d="M53.27,152.34h1.2v1.34a4,4,0,0,1,1.13-1.18,2.21,2.21,0,0,1,1.24-.39,2.12,2.12,0,0,1,1,.31l-.62,1a1.53,1.53,0,0,0-.62-.16,1.71,1.71,0,0,0-1.13.48,3.07,3.07,0,0,0-.82,1.49,14,14,0,0,0-.22,3.15v3.08h-1.2Z" transform="translate(-19.19 -28.85)"/><path class="cls-1" d="M66.54,158.43l1,.52a5.33,5.33,0,0,1-1.12,1.54,4.39,4.39,0,0,1-1.44.89,4.85,4.85,0,0,1-1.8.31,4.35,4.35,0,0,1-3.48-1.46,5,5,0,0,1-1.26-3.31,4.89,4.89,0,0,1,1.06-3.09,4.38,4.38,0,0,1,3.61-1.72,4.5,4.5,0,0,1,3.73,1.77,4.91,4.91,0,0,1,1,3.11h-8.2a3.7,3.7,0,0,0,1,2.6,3.22,3.22,0,0,0,2.42,1,3.94,3.94,0,0,0,1.36-.24,3.46,3.46,0,0,0,1.11-.65A5,5,0,0,0,66.54,158.43Zm0-2.45a3.73,3.73,0,0,0-.68-1.5,3.23,3.23,0,0,0-1.19-.91,3.76,3.76,0,0,0-1.55-.34,3.35,3.35,0,0,0-2.3.86A3.91,3.91,0,0,0,59.75,156Z" transform="translate(-19.19 -28.85)"/><path class="cls-1" d="M79.09,152.34v9.11H77.94v-1.56a5,5,0,0,1-1.65,1.35,4.55,4.55,0,0,1-2,.45,4.45,4.45,0,0,1-3.3-1.4,4.7,4.7,0,0,1-1.37-3.42A4.61,4.61,0,0,1,71,153.51a4.51,4.51,0,0,1,3.32-1.4,4.25,4.25,0,0,1,2,.48,4.49,4.49,0,0,1,1.6,1.43v-1.68Zm-4.68.9a3.55,3.55,0,0,0-1.81.48,3.47,3.47,0,0,0-1.31,1.35,3.7,3.7,0,0,0,0,3.68,3.62,3.62,0,0,0,1.32,1.37,3.45,3.45,0,0,0,1.79.49,3.58,3.58,0,0,0,1.82-.49,3.35,3.35,0,0,0,1.33-1.31,3.73,3.73,0,0,0,.46-1.87,3.6,3.6,0,0,0-1-2.64A3.43,3.43,0,0,0,74.41,153.24Z" transform="translate(-19.19 -28.85)"/><path class="cls-1" d="M81.58,152.34h1.17v4.26a9.09,9.09,0,0,0,.17,2.14,2.39,2.39,0,0,0,1,1.32,3.18,3.18,0,0,0,3.36,0,2.43,2.43,0,0,0,.94-1.25,8.53,8.53,0,0,0,.18-2.23v-4.26h1.19v4.47a6.93,6.93,0,0,1-.44,2.84,3.32,3.32,0,0,1-1.32,1.5,4.18,4.18,0,0,1-2.21.54,4.26,4.26,0,0,1-2.23-.54A3.32,3.32,0,0,1,82,159.64a7.39,7.39,0,0,1-.44-2.91Z" transform="translate(-19.19 -28.85)"/><path class="cls-1" d="M97.72,153.64a4.77,4.77,0,0,1,7,0,4.89,4.89,0,0,1-.07,6.63,4.82,4.82,0,0,1-6.85,0,4.88,4.88,0,0,1-.07-6.62Zm3.49-.38a3.38,3.38,0,0,0-2.51,1.08,3.61,3.61,0,0,0-1,2.61,3.69,3.69,0,0,0,.48,1.84,3.41,3.41,0,0,0,1.29,1.32,3.64,3.64,0,0,0,3.58,0,3.37,3.37,0,0,0,1.3-1.32,3.69,3.69,0,0,0,.48-1.84,3.58,3.58,0,0,0-1.06-2.61A3.38,3.38,0,0,0,101.21,153.26Z" transform="translate(-19.19 -28.85)"/><path class="cls-1" d="M110.52,148.59a4.82,4.82,0,0,1,1.36.24V150a2.92,2.92,0,0,0-1.1-.27,1,1,0,0,0-.57.14.59.59,0,0,0-.29.32,5.35,5.35,0,0,0,0,1v1.23h1.9v1h-1.9v8.09h-1.17v-8.09h-1.2v-1h1.2v-1.42a3.89,3.89,0,0,1,.18-1.4,1.41,1.41,0,0,1,.61-.67,2,2,0,0,1,1-.26Z" transform="translate(-19.19 -28.85)"/><path class="cls-1" d="M129.93,151.42l-1,.75a5.34,5.34,0,0,0-1.93-1.59,5.65,5.65,0,0,0-2.47-.54,5.45,5.45,0,0,0-2.73.71,5,5,0,0,0-2,1.9,5.24,5.24,0,0,0-.69,2.68,5,5,0,0,0,1.54,3.76,5.34,5.34,0,0,0,3.9,1.51,5.46,5.46,0,0,0,4.33-2l1,.74a6.18,6.18,0,0,1-2.3,1.81,7.15,7.15,0,0,1-3.07.64,6.4,6.4,0,0,1-5.11-2.15,6.5,6.5,0,0,1-1.56-4.39,6,6,0,0,1,1.9-4.54,6.48,6.48,0,0,1,4.75-1.85,7,7,0,0,1,3.11.68A6.06,6.06,0,0,1,129.93,151.42Z" transform="translate(-19.19 -28.85)"/><path class="cls-1" d="M132.06,152.34h1.17v4.26a9.09,9.09,0,0,0,.17,2.14,2.34,2.34,0,0,0,1,1.32,3.16,3.16,0,0,0,3.35,0,2.38,2.38,0,0,0,.94-1.25,8.53,8.53,0,0,0,.18-2.23v-4.26H140v4.47a7.1,7.1,0,0,1-.44,2.84,3.38,3.38,0,0,1-1.32,1.5,4.83,4.83,0,0,1-4.44,0,3.26,3.26,0,0,1-1.33-1.51,7.21,7.21,0,0,1-.44-2.91Z" transform="translate(-19.19 -28.85)"/><path class="cls-1" d="M142.46,148.83h1.17v12.62h-1.17Z" transform="translate(-19.19 -28.85)"/><path class="cls-1" d="M147.09,149h1.17v3.38h1.86v1h-1.86v8.09h-1.17v-8.09h-1.6v-1h1.6Z" transform="translate(-19.19 -28.85)"/><path class="cls-1" d="M151.73,152.34h1.17v4.26a8.57,8.57,0,0,0,.17,2.14,2.34,2.34,0,0,0,1,1.32,3.16,3.16,0,0,0,3.35,0,2.38,2.38,0,0,0,.94-1.25,8.53,8.53,0,0,0,.18-2.23v-4.26h1.2v4.47a7.1,7.1,0,0,1-.44,2.84,3.38,3.38,0,0,1-1.32,1.5,4.83,4.83,0,0,1-4.44,0,3.26,3.26,0,0,1-1.33-1.51,7.21,7.21,0,0,1-.44-2.91Z" transform="translate(-19.19 -28.85)"/><path class="cls-1" d="M161.86,152.34h1.2v1.34a4,4,0,0,1,1.13-1.18,2.18,2.18,0,0,1,1.23-.39,2.09,2.09,0,0,1,1,.31l-.61,1a1.53,1.53,0,0,0-.62-.16,1.69,1.69,0,0,0-1.13.48,3,3,0,0,0-.82,1.49,14,14,0,0,0-.22,3.15v3.08h-1.2Z" transform="translate(-19.19 -28.85)"/><path class="cls-1" d="M176.54,152.34v9.11h-1.16v-1.56a5,5,0,0,1-1.65,1.35,4.63,4.63,0,0,1-5.31-1,4.74,4.74,0,0,1-1.37-3.42,4.61,4.61,0,0,1,1.38-3.36,4.52,4.52,0,0,1,3.33-1.4,4.31,4.31,0,0,1,2,.48,4.47,4.47,0,0,1,1.59,1.43v-1.68Zm-4.69.9a3.54,3.54,0,0,0-3.12,1.83,3.7,3.7,0,0,0,0,3.68,3.58,3.58,0,0,0,1.33,1.37,3.41,3.41,0,0,0,1.78.49,3.61,3.61,0,0,0,1.83-.49,3.39,3.39,0,0,0,1.32-1.31,3.74,3.74,0,0,0,.47-1.87,3.61,3.61,0,0,0-1.05-2.64A3.42,3.42,0,0,0,171.85,153.24Z" transform="translate(-19.19 -28.85)"/><path class="cls-1" d="M179,148.83h1.17v12.62H179Z" transform="translate(-19.19 -28.85)"/><path class="cls-1" d="M192.58,149.14l5.75,12.31H197l-1.94-4h-5.31l-1.92,4h-1.37l5.82-12.31Zm-.15,2.62-2.11,4.45h4.21Z" transform="translate(-19.19 -28.85)"/><path class="cls-1" d="M202.43,148.59a4.82,4.82,0,0,1,1.36.24V150a3,3,0,0,0-1.1-.27,1,1,0,0,0-.57.14.59.59,0,0,0-.29.32,4.48,4.48,0,0,0-.05,1v1.23h1.91v1h-1.91v8.09h-1.18v-8.09H199.4v-1h1.19v-1.42a4.13,4.13,0,0,1,.18-1.4,1.43,1.43,0,0,1,.62-.67,2,2,0,0,1,1-.26Z" transform="translate(-19.19 -28.85)"/><path class="cls-1" d="M207.81,148.59a4.88,4.88,0,0,1,1.37.24V150a3,3,0,0,0-1.11-.27,1,1,0,0,0-.57.14.57.57,0,0,0-.28.32,4.2,4.2,0,0,0-.06,1v1.23h1.9v1h-1.9v8.09H206v-8.09h-1.2v-1H206v-1.42a3.89,3.89,0,0,1,.18-1.4,1.41,1.41,0,0,1,.61-.67,2,2,0,0,1,1-.26Z" transform="translate(-19.19 -28.85)"/><path class="cls-1" d="M219.89,152.34v9.11h-1.16v-1.56a5,5,0,0,1-1.65,1.35,4.63,4.63,0,0,1-5.31-1,4.74,4.74,0,0,1-1.37-3.42,4.61,4.61,0,0,1,1.38-3.36,4.52,4.52,0,0,1,3.33-1.4,4.28,4.28,0,0,1,2,.48,4.55,4.55,0,0,1,1.59,1.43v-1.68Zm-4.69.9a3.54,3.54,0,0,0-3.12,1.83,3.7,3.7,0,0,0,0,3.68,3.58,3.58,0,0,0,1.33,1.37,3.41,3.41,0,0,0,1.78.49,3.61,3.61,0,0,0,1.83-.49,3.39,3.39,0,0,0,1.32-1.31,3.74,3.74,0,0,0,.47-1.87,3.61,3.61,0,0,0-1.05-2.64A3.42,3.42,0,0,0,215.2,153.24Z" transform="translate(-19.19 -28.85)"/><path class="cls-1" d="M222.93,148.59a.94.94,0,0,1,.69.29.93.93,0,0,1,.28.68.91.91,0,0,1-.28.68.94.94,0,0,1-.69.29,1,1,0,0,1-1-1,.94.94,0,0,1,.29-.68A.92.92,0,0,1,222.93,148.59Zm-.58,3.75h1.17v9.11h-1.17Z" transform="translate(-19.19 -28.85)"/><path class="cls-1" d="M225.51,152.34h1.2v1.34a4.14,4.14,0,0,1,1.13-1.18,2.24,2.24,0,0,1,1.24-.39,2.12,2.12,0,0,1,1,.31l-.61,1a1.57,1.57,0,0,0-.62-.16,1.69,1.69,0,0,0-1.13.48,3,3,0,0,0-.83,1.49,14,14,0,0,0-.22,3.15v3.08h-1.2Z" transform="translate(-19.19 -28.85)"/><path class="cls-1" d="M233.16,152.11a3.72,3.72,0,0,1,2.54,1.23l-.76.78a2.69,2.69,0,0,0-1.84-.91,1.37,1.37,0,0,0-1,.37,1.15,1.15,0,0,0-.41.88,1.28,1.28,0,0,0,.34.85,4.71,4.71,0,0,0,1.41,1,5.16,5.16,0,0,1,1.77,1.31,2.36,2.36,0,0,1,.47,1.43,2.59,2.59,0,0,1-.79,1.9,2.71,2.71,0,0,1-2,.78,3.58,3.58,0,0,1-1.51-.34,3.36,3.36,0,0,1-1.19-.95l.74-.84a2.57,2.57,0,0,0,1.91,1,1.73,1.73,0,0,0,1.2-.46,1.39,1.39,0,0,0,.16-2,5.31,5.31,0,0,0-1.47-1,4.78,4.78,0,0,1-1.68-1.25,2.37,2.37,0,0,1-.44-1.42,2.28,2.28,0,0,1,.7-1.72,2.48,2.48,0,0,1,1.79-.69Z" transform="translate(-19.19 -28.85)"/><path class="cls-1" d="M242.71,149.14H244v4.62l4.92-4.62h1.66l-5.92,5.52,6.38,6.79h-1.64l-5.4-5.73v5.73h-1.26Z" transform="translate(-19.19 -28.85)"/><path class="cls-1" d="M261.73,152.34v9.11h-1.15v-1.56a5.1,5.1,0,0,1-1.66,1.35,4.63,4.63,0,0,1-5.31-1,4.74,4.74,0,0,1-1.37-3.42,4.61,4.61,0,0,1,1.39-3.36,4.5,4.5,0,0,1,3.32-1.4,4.28,4.28,0,0,1,2,.48,4.49,4.49,0,0,1,1.6,1.43v-1.68Zm-4.68.9a3.53,3.53,0,0,0-1.81.48,3.57,3.57,0,0,0-1.32,1.35,3.7,3.7,0,0,0,0,3.68,3.65,3.65,0,0,0,1.33,1.37,3.45,3.45,0,0,0,1.79.49,3.6,3.6,0,0,0,1.82-.49,3.42,3.42,0,0,0,1.33-1.31,3.73,3.73,0,0,0,.46-1.87,3.64,3.64,0,0,0-1-2.64A3.43,3.43,0,0,0,257.05,153.24Z" transform="translate(-19.19 -28.85)"/><path class="cls-1" d="M265.18,153.64a4.77,4.77,0,0,1,7,0,4.89,4.89,0,0,1-.07,6.63,4.82,4.82,0,0,1-6.85,0,4.91,4.91,0,0,1-.07-6.62Zm3.5-.38a3.41,3.41,0,0,0-2.52,1.08,3.61,3.61,0,0,0-1.05,2.61,3.69,3.69,0,0,0,.48,1.84,3.37,3.37,0,0,0,1.3,1.32,3.64,3.64,0,0,0,3.58,0,3.41,3.41,0,0,0,1.29-1.32,3.69,3.69,0,0,0,.48-1.84,3.61,3.61,0,0,0-1.05-2.61A3.42,3.42,0,0,0,268.68,153.26Z" transform="translate(-19.19 -28.85)"/><path class="cls-1" d="M275.6,148.83h1.17V154a5,5,0,0,1,1.56-1.41,3.94,3.94,0,0,1,1.86-.46,3.2,3.2,0,0,1,1.81.52,3.1,3.1,0,0,1,1.17,1.39,7.43,7.43,0,0,1,.37,2.74v4.69h-1.17v-4.34a11.58,11.58,0,0,0-.12-2.1,2.34,2.34,0,0,0-.8-1.36,2.3,2.3,0,0,0-1.5-.46,2.87,2.87,0,0,0-1.9.7,3.31,3.31,0,0,0-1.11,1.75,11.31,11.31,0,0,0-.17,2.47v3.34H275.6Z" transform="translate(-19.19 -28.85)"/><path class="cls-1" d="M288.1,152.11a3.72,3.72,0,0,1,2.54,1.23l-.76.78a2.69,2.69,0,0,0-1.84-.91,1.41,1.41,0,0,0-1,.37,1.17,1.17,0,0,0-.4.88,1.28,1.28,0,0,0,.34.85,4.77,4.77,0,0,0,1.4,1,5.22,5.22,0,0,1,1.78,1.31,2.35,2.35,0,0,1,.46,1.43,2.58,2.58,0,0,1-.78,1.9,2.71,2.71,0,0,1-2,.78,3.58,3.58,0,0,1-1.51-.34,3.36,3.36,0,0,1-1.19-.95l.74-.84a2.55,2.55,0,0,0,1.9,1,1.75,1.75,0,0,0,1.21-.46,1.41,1.41,0,0,0,.49-1.06,1.37,1.37,0,0,0-.33-.9,5.47,5.47,0,0,0-1.47-1,4.6,4.6,0,0,1-1.68-1.25,2.38,2.38,0,0,1-.45-1.42,2.29,2.29,0,0,1,.71-1.72,2.48,2.48,0,0,1,1.79-.69Z" transform="translate(-19.19 -28.85)"/><path class="cls-1" d="M293.12,148.59a.92.92,0,0,1,.68.29.94.94,0,0,1,.29.68,1,1,0,0,1-1,1,.94.94,0,0,1-.68-.29.91.91,0,0,1-.28-.68.93.93,0,0,1,.28-.68A.94.94,0,0,1,293.12,148.59Zm-.58,3.75h1.17v9.11h-1.17Z" transform="translate(-19.19 -28.85)"/><path class="cls-1" d="M296,152.34h1.17v4.26a9.09,9.09,0,0,0,.17,2.14,2.3,2.3,0,0,0,1,1.32,2.86,2.86,0,0,0,1.69.49,2.9,2.9,0,0,0,1.66-.47,2.38,2.38,0,0,0,.94-1.25,8.53,8.53,0,0,0,.18-2.23v-4.26H304v4.47a7.1,7.1,0,0,1-.44,2.84,3.4,3.4,0,0,1-1.33,1.5,4.14,4.14,0,0,1-2.21.54,4.2,4.2,0,0,1-2.22-.54,3.34,3.34,0,0,1-1.34-1.51,7.42,7.42,0,0,1-.43-2.91Z" transform="translate(-19.19 -28.85)"/><path class="cls-1" d="M306.57,152.34h1.17V154a5,5,0,0,1,1.56-1.41,3.94,3.94,0,0,1,1.86-.46,3.2,3.2,0,0,1,1.81.52,3.08,3.08,0,0,1,1.17,1.4,7.37,7.37,0,0,1,.38,2.73v4.69h-1.17v-4.34a11.28,11.28,0,0,0-.13-2.1,2.15,2.15,0,0,0-2.29-1.82,2.89,2.89,0,0,0-1.91.7,3.31,3.31,0,0,0-1.11,1.75,12.07,12.07,0,0,0-.17,2.47v3.34h-1.17Z" transform="translate(-19.19 -28.85)"/><path class="cls-1" d="M324.88,152.34h1.18v7.26a8.65,8.65,0,0,1-.34,2.81,3.59,3.59,0,0,1-1.6,1.93,5.18,5.18,0,0,1-2.74.68,6.25,6.25,0,0,1-2.1-.33,4.16,4.16,0,0,1-1.52-.89,5.36,5.36,0,0,1-1.08-1.63H318a3.38,3.38,0,0,0,1.34,1.34,4.34,4.34,0,0,0,2,.43,4.16,4.16,0,0,0,2-.45,2.63,2.63,0,0,0,1.18-1.12,4.93,4.93,0,0,0,.35-2.18v-.47a4.47,4.47,0,0,1-1.61,1.29,4.88,4.88,0,0,1-2,.44,4.72,4.72,0,0,1-2.37-.62,4.45,4.45,0,0,1-1.71-1.68,4.74,4.74,0,0,1,4.11-7,4.41,4.41,0,0,1,1.91.42,5.13,5.13,0,0,1,1.7,1.4Zm-3.46.9a3.69,3.69,0,0,0-1.84.48,3.49,3.49,0,0,0-1.34,1.33,3.6,3.6,0,0,0-.49,1.84,3.32,3.32,0,0,0,1,2.48,3.57,3.57,0,0,0,2.6,1,3.53,3.53,0,0,0,2.6-1,3.42,3.42,0,0,0,1-2.56,3.77,3.77,0,0,0-.45-1.84,3.32,3.32,0,0,0-1.28-1.27A3.6,3.6,0,0,0,321.42,153.24Z" transform="translate(-19.19 -28.85)"/><path class="cls-1" d="M345,151.42l-1,.75a5.34,5.34,0,0,0-1.93-1.59,5.62,5.62,0,0,0-2.47-.54,5.48,5.48,0,0,0-2.73.71,5,5,0,0,0-1.95,1.9,5.24,5.24,0,0,0-.69,2.68,5,5,0,0,0,1.54,3.76,5.34,5.34,0,0,0,3.9,1.51,5.46,5.46,0,0,0,4.33-2l1,.74a6.18,6.18,0,0,1-2.3,1.81,7.15,7.15,0,0,1-3.07.64,6.4,6.4,0,0,1-5.11-2.15,6.5,6.5,0,0,1-1.56-4.39,6,6,0,0,1,1.9-4.54,6.48,6.48,0,0,1,4.75-1.85,7,7,0,0,1,3.11.68A6.06,6.06,0,0,1,345,151.42Z" transform="translate(-19.19 -28.85)"/><path class="cls-1" d="M347.66,148.59a.94.94,0,0,1,.69.29.93.93,0,0,1,.28.68.91.91,0,0,1-.28.68.94.94,0,0,1-.69.29,1,1,0,0,1-1-1,.93.93,0,0,1,.28-.68A.92.92,0,0,1,347.66,148.59Zm-.58,3.75h1.17v9.11h-1.17Z" transform="translate(-19.19 -28.85)"/><path class="cls-1" d="M351.71,149h1.18v3.38h1.86v1h-1.86v8.09h-1.18v-8.09h-1.6v-1h1.6Z" transform="translate(-19.19 -28.85)"/><path class="cls-1" d="M355.52,152.34h1.24l3.13,7,3.05-7h1.24l-5.43,12.45h-1.24l1.75-4Z" transform="translate(-19.19 -28.85)"/><path class="cls-1" d="M382.52,151.21l-1,.9a7.12,7.12,0,0,0-2.25-1.54,6.25,6.25,0,0,0-2.39-.52,5.73,5.73,0,0,0-2.76.71,5.24,5.24,0,0,0-2,1.93,5,5,0,0,0-.72,2.58,5.07,5.07,0,0,0,.74,2.64,5.42,5.42,0,0,0,2.06,2,6,6,0,0,0,2.88.71,5,5,0,0,0,3.22-1.07,4.23,4.23,0,0,0,1.55-2.78h-3.92v-1.19h5.31a6.18,6.18,0,0,1-1.7,4.54,6.09,6.09,0,0,1-4.49,1.67,6.75,6.75,0,0,1-5.41-2.32,6.21,6.21,0,0,1-1.53-4.15A6.33,6.33,0,0,1,371,152a6.26,6.26,0,0,1,2.41-2.35,7,7,0,0,1,3.47-.85,7.81,7.81,0,0,1,2.94.56A8.81,8.81,0,0,1,382.52,151.21Z" transform="translate(-19.19 -28.85)"/><path class="cls-1" d="M386.21,153.64a4.77,4.77,0,0,1,7,0,4.89,4.89,0,0,1-.07,6.63,4.8,4.8,0,0,1-6.84,0,4.72,4.72,0,0,1-1.33-3.34,4.77,4.77,0,0,1,1.25-3.28Zm3.5-.38a3.37,3.37,0,0,0-2.51,1.08,3.61,3.61,0,0,0-1.05,2.61,3.69,3.69,0,0,0,.48,1.84,3.41,3.41,0,0,0,1.29,1.32,3.64,3.64,0,0,0,3.58,0,3.41,3.41,0,0,0,1.29-1.32,3.69,3.69,0,0,0,.48-1.84,3.61,3.61,0,0,0-1-2.61A3.38,3.38,0,0,0,389.71,153.26Z" transform="translate(-19.19 -28.85)"/><path class="cls-1" d="M395.77,152.34H397l3.05,6.64,3-6.64h1.25l-4.17,9.11H400Z" transform="translate(-19.19 -28.85)"/><path class="cls-1" d="M413.8,158.43l1,.52a5.33,5.33,0,0,1-1.12,1.54,4.35,4.35,0,0,1-1.43.89,5,5,0,0,1-1.81.31,4.35,4.35,0,0,1-3.48-1.46,5,5,0,0,1-1.26-3.31,4.84,4.84,0,0,1,1.07-3.09,4.34,4.34,0,0,1,3.61-1.72,4.5,4.5,0,0,1,3.72,1.77,4.91,4.91,0,0,1,1,3.11H406.9a3.69,3.69,0,0,0,1,2.6,3.22,3.22,0,0,0,2.42,1,3.94,3.94,0,0,0,1.36-.24,3.51,3.51,0,0,0,1.12-.65A5.45,5.45,0,0,0,413.8,158.43Zm0-2.45a3.87,3.87,0,0,0-.68-1.5,3.19,3.19,0,0,0-1.18-.91,3.84,3.84,0,0,0-1.56-.34,3.35,3.35,0,0,0-2.3.86A3.91,3.91,0,0,0,407,156Z" transform="translate(-19.19 -28.85)"/><path class="cls-1" d="M416.83,152.34H418v1.34a4.14,4.14,0,0,1,1.13-1.18,2.24,2.24,0,0,1,1.24-.39,2.12,2.12,0,0,1,1,.31l-.61,1a1.57,1.57,0,0,0-.62-.16,1.69,1.69,0,0,0-1.13.48,3,3,0,0,0-.83,1.49,14,14,0,0,0-.22,3.15v3.08h-1.2Z" transform="translate(-19.19 -28.85)"/><path class="cls-1" d="M422.44,152.34h1.17V154a5,5,0,0,1,1.56-1.41,3.94,3.94,0,0,1,1.86-.46,3.2,3.2,0,0,1,1.81.52A3.08,3.08,0,0,1,430,154a7.41,7.41,0,0,1,.37,2.73v4.69h-1.17v-4.34a10.44,10.44,0,0,0-.13-2.1,2.27,2.27,0,0,0-.78-1.36,2.34,2.34,0,0,0-1.51-.46,2.87,2.87,0,0,0-1.9.7,3.31,3.31,0,0,0-1.11,1.75,11.37,11.37,0,0,0-.17,2.47v3.34h-1.17Z" transform="translate(-19.19 -28.85)"/><path class="cls-1" d="M432.89,152.34h1.17v1.58a4.46,4.46,0,0,1,1.26-1.27,3.53,3.53,0,0,1,1.87-.54,3.11,3.11,0,0,1,1.25.26,2.63,2.63,0,0,1,1,.69,3.71,3.71,0,0,1,.65,1.23,4.36,4.36,0,0,1,1.46-1.62,3.42,3.42,0,0,1,1.89-.56,3,3,0,0,1,1.67.48,2.78,2.78,0,0,1,1.07,1.33,7,7,0,0,1,.35,2.56v5h-1.2v-5a6.81,6.81,0,0,0-.2-2,1.84,1.84,0,0,0-.72-.89,2.16,2.16,0,0,0-1.2-.33,2.66,2.66,0,0,0-1.56.5,2.93,2.93,0,0,0-1,1.34,8.4,8.4,0,0,0-.33,2.8v3.56H439.1v-4.66a8.32,8.32,0,0,0-.2-2.24,1.87,1.87,0,0,0-.72-.94,2.07,2.07,0,0,0-1.22-.36,2.57,2.57,0,0,0-1.51.49,2.75,2.75,0,0,0-1.05,1.32,7,7,0,0,0-.34,2.53v3.86h-1.17Z" transform="translate(-19.19 -28.85)"/><path class="cls-1" d="M456.65,158.43l1,.52a5.52,5.52,0,0,1-1.12,1.54,4.5,4.5,0,0,1-1.44.89,4.85,4.85,0,0,1-1.8.31,4.39,4.39,0,0,1-3.49-1.46,5,5,0,0,1-1.25-3.31,4.89,4.89,0,0,1,1.06-3.09,4.38,4.38,0,0,1,3.61-1.72,4.5,4.5,0,0,1,3.73,1.77,5,5,0,0,1,1,3.11h-8.2a3.66,3.66,0,0,0,1,2.6,3.22,3.22,0,0,0,2.42,1,3.88,3.88,0,0,0,1.35-.24,3.41,3.41,0,0,0,1.12-.65A5.19,5.19,0,0,0,456.65,158.43Zm0-2.45a3.87,3.87,0,0,0-.68-1.5,3.23,3.23,0,0,0-1.19-.91,3.76,3.76,0,0,0-1.55-.34,3.35,3.35,0,0,0-2.3.86,3.91,3.91,0,0,0-1.07,1.89Z" transform="translate(-19.19 -28.85)"/><path class="cls-1" d="M460.12,152.34h1.18V154a5.09,5.09,0,0,1,1.55-1.41,3.94,3.94,0,0,1,1.86-.46,3.23,3.23,0,0,1,1.82.52,3.06,3.06,0,0,1,1.16,1.4,7.16,7.16,0,0,1,.38,2.73v4.69H466.9v-4.34a10.44,10.44,0,0,0-.13-2.1,2.32,2.32,0,0,0-.78-1.36,2.34,2.34,0,0,0-1.51-.46,2.91,2.91,0,0,0-1.91.7,3.31,3.31,0,0,0-1.11,1.75,12.29,12.29,0,0,0-.16,2.47v3.34h-1.18Z" transform="translate(-19.19 -28.85)"/><path class="cls-1" d="M471.61,149h1.17v3.38h1.86v1h-1.86v8.09h-1.17v-8.09H470v-1h1.6Z" transform="translate(-19.19 -28.85)"/></svg>